<?xml version="1.0" encoding="utf-8"?>
<!-- Generator: Adobe Illustrator 25.2.0, SVG Export Plug-In . SVG Version: 6.00 Build 0)  -->
<svg version="1.1" id="Capa_1" xmlns="http://www.w3.org/2000/svg" xmlns:xlink="http://www.w3.org/1999/xlink" x="0px" y="0px"
	 viewBox="0 0 100 100" style="enable-background:new 0 0 100 100;" xml:space="preserve">
<style type="text/css">
	.st0{fill:#FFFFFF;}
</style>
<g>
	<g>
		<circle class="st0" cx="25.55" cy="33.09" r="7.8"/>
		<path class="st0" d="M5,61.8c1.21-10.28,9.95-18.25,20.55-18.25c5.8,0,11.05,2.39,14.81,6.23c-10.3,2.39-15.22,12.03-15.22,12.03
			L5,61.8z"/>
	</g>
	<g>
		<circle class="st0" cx="74.45" cy="33.09" r="7.8"/>
		<path class="st0" d="M95,61.8c-1.21-10.28-9.95-18.25-20.55-18.25c-5.8,0-11.05,2.39-14.81,6.23
			c10.3,2.39,15.22,12.03,15.22,12.03L95,61.8z"/>
	</g>
	<g>
		<circle class="st0" cx="49.83" cy="36.29" r="10.43"/>
		<path class="st0" d="M22.35,74.69c1.62-13.75,13.31-24.41,27.49-24.41c14.19,0,25.88,10.68,27.49,24.43L22.35,74.69z"/>
	</g>
</g>
</svg>
