<?xml version="1.0" encoding="utf-8"?>
<!-- Generator: Adobe Illustrator 25.2.0, SVG Export Plug-In . SVG Version: 6.00 Build 0)  -->
<svg version="1.1" id="Capa_1" xmlns="http://www.w3.org/2000/svg" xmlns:xlink="http://www.w3.org/1999/xlink" x="0px" y="0px"
	 viewBox="0 0 60 60" style="enable-background:new 0 0 60 60;" xml:space="preserve">
<style type="text/css">
	.st0{fill:#E52521;}
	.st1{fill:#352513;}
</style>
<g>
	<g>
		<path class="st0" d="M44.25,53.66c-2.51,0-4.87-0.98-6.65-2.75L30,43.3l-7.6,7.6c-1.78,1.78-4.14,2.75-6.65,2.75
			c-2.51,0-4.87-0.98-6.65-2.75c-1.78-1.78-2.75-4.14-2.75-6.65c0-2.51,0.98-4.87,2.75-6.65l7.6-7.6l-7.6-7.6
			c-1.78-1.78-2.75-4.14-2.75-6.65c0-2.51,0.98-4.87,2.75-6.65c1.78-1.78,4.14-2.75,6.65-2.75c2.51,0,4.87,0.98,6.65,2.75l7.6,7.6
			l7.6-7.6c1.78-1.78,4.14-2.75,6.65-2.75c2.51,0,4.87,0.98,6.65,2.75c3.67,3.67,3.67,9.63,0,13.3L43.3,30l7.6,7.6
			c3.67,3.67,3.67,9.63,0,13.3C49.13,52.68,46.76,53.66,44.25,53.66z"/>
		<path class="st1" d="M44.25,7.69c2.06,0,4.13,0.79,5.7,2.36c3.15,3.15,3.15,8.25,0,11.4L41.4,30l8.55,8.55
			c3.15,3.15,3.15,8.25,0,11.4c-1.57,1.57-3.64,2.36-5.7,2.36c-2.06,0-4.13-0.79-5.7-2.36L30,41.4l-8.55,8.55
			c-1.57,1.57-3.64,2.36-5.7,2.36s-4.13-0.79-5.7-2.36c-3.15-3.15-3.15-8.25,0-11.4L18.6,30l-8.55-8.55c-3.15-3.15-3.15-8.25,0-11.4
			c1.57-1.57,3.64-2.36,5.7-2.36s4.13,0.79,5.7,2.36L30,18.6l8.55-8.55C40.12,8.47,42.19,7.69,44.25,7.69 M44.25,5
			c-2.87,0-5.57,1.12-7.6,3.15L30,14.8l-6.65-6.65C21.32,6.12,18.62,5,15.75,5s-5.57,1.12-7.6,3.15C6.12,10.18,5,12.88,5,15.75
			s1.12,5.57,3.15,7.6L14.8,30l-6.65,6.65C6.12,38.68,5,41.38,5,44.25c0,2.87,1.12,5.57,3.15,7.6S12.88,55,15.75,55
			s5.57-1.12,7.6-3.15L30,45.2l6.65,6.65c2.03,2.03,4.73,3.15,7.6,3.15c2.87,0,5.57-1.12,7.6-3.15S55,47.12,55,44.25
			c0-2.87-1.12-5.57-3.15-7.6L45.2,30l6.65-6.65c2.03-2.03,3.15-4.73,3.15-7.6s-1.12-5.57-3.15-7.6C49.82,6.12,47.12,5,44.25,5
			L44.25,5z"/>
	</g>
</g>
</svg>
