<?xml version="1.0" encoding="utf-8"?>
<!-- Generator: Adobe Illustrator 25.2.0, SVG Export Plug-In . SVG Version: 6.00 Build 0)  -->
<svg version="1.1" id="Capa_1" xmlns="http://www.w3.org/2000/svg" xmlns:xlink="http://www.w3.org/1999/xlink" x="0px" y="0px"
	 viewBox="0 0 100 100" style="enable-background:new 0 0 100 100;" xml:space="preserve">
<style type="text/css">
	.st0{fill:#FFFFFF;}
</style>
<g>
	<path class="st0" d="M24.47,71.53C41.73,91.66,65.18,98.34,78.1,91.88c12.92-6.46,14.86-11.31,8.08-18.74
		c-6.78-7.43-6.78-7.43-6.78-7.43s-9.69-2.91-13.25,3.23c-3.55,6.14-14.22,1.94-25.2-9.37S24.79,39.87,29.96,33.08
		s4.85-10.02,0.65-15.83S20.92,5.3,13.16,12.73S-4.61,37.6,24.47,71.53z"/>
	<g>
		<g>
			<path class="st0" d="M72.28,48.54l-2.21-2.58c2.39-2.05,3.76-5.02,3.76-8.16c0-5.92-4.82-10.74-10.74-10.74
				c-3.03,0-5.94,1.29-7.97,3.54l-2.52-2.27c2.68-2.96,6.5-4.66,10.49-4.66c7.79,0,14.13,6.34,14.13,14.13
				C77.22,41.94,75.42,45.85,72.28,48.54z"/>
		</g>
		<g>
			<path class="st0" d="M78.21,55.76L76,53.18c4.46-3.83,7.03-9.39,7.03-15.26c0-11.08-9.01-20.09-20.09-20.09
				c-5.67,0-11.11,2.42-14.91,6.63l-2.52-2.27c4.45-4.92,10.8-7.75,17.43-7.75c12.95,0,23.48,10.53,23.48,23.48
				C86.42,44.78,83.43,51.29,78.21,55.76z"/>
		</g>
		<g>
			<path class="st0" d="M83.83,61.95l-2.21-2.58c6.35-5.44,9.99-13.34,9.99-21.69c0-15.74-12.81-28.55-28.55-28.55
				c-8.06,0-15.79,3.43-21.19,9.42l-2.52-2.27C45.4,9.58,54.04,5.74,63.06,5.74C80.67,5.74,95,20.07,95,37.68
				C95,47.02,90.93,55.87,83.83,61.95z"/>
		</g>
	</g>
</g>
</svg>
